<svg width="28" height="28" viewBox="0 0 28 28" fill="none" xmlns="http://www.w3.org/2000/svg">
<path d="M8.27683 6.39124C8.52672 5.86906 8.66666 5.28422 8.66666 4.66669C8.66666 2.45755 6.8758 0.666687 4.66666 0.666687C2.45752 0.666687 0.666656 2.45755 0.666656 4.66669C0.666656 6.87583 2.45752 8.66669 4.66666 8.66669C5.28419 8.66669 5.86903 8.52675 6.39121 8.27686L8.43785 10.3235C7.73983 11.3774 7.33332 12.6412 7.33332 14C7.33332 15.3588 7.73983 16.6226 8.43785 17.6765L6.69071 19.4237C6.47041 19.3648 6.23887 19.3334 5.99999 19.3334C4.52723 19.3334 3.33332 20.5273 3.33332 22C3.33332 23.4728 4.52723 24.6667 5.99999 24.6667C7.47275 24.6667 8.66666 23.4728 8.66666 22C8.66666 21.7611 8.63525 21.5296 8.57633 21.3093L10.3235 19.5622C11.3774 20.2602 12.6412 20.6667 14 20.6667C15.3588 20.6667 16.6226 20.2602 17.6765 19.5622L19.7232 21.6088C19.4733 22.131 19.3333 22.7158 19.3333 23.3334C19.3333 25.5425 21.1242 27.3334 23.3333 27.3334C25.5425 27.3334 27.3333 25.5425 27.3333 23.3334C27.3333 21.1242 25.5425 19.3334 23.3333 19.3334C22.7158 19.3334 22.1309 19.4733 21.6088 19.7232L19.5621 17.6765C20.2602 16.6226 20.6667 15.3588 20.6667 14C20.6667 12.6412 20.2602 11.3774 19.5621 10.3235L21.3093 8.57636C21.5296 8.63528 21.7611 8.66669 22 8.66669C23.4727 8.66669 24.6667 7.47278 24.6667 6.00002C24.6667 4.52726 23.4728 3.33335 22 3.33335C20.5272 3.33335 19.3333 4.52726 19.3333 6.00002C19.3333 6.2389 19.3647 6.47044 19.4236 6.69075L17.6765 8.43788C16.6226 7.73986 15.3588 7.33335 14 7.33335C12.6412 7.33335 11.3774 7.73986 10.3235 8.43788L8.27683 6.39124Z" fill="white"/>
</svg>
