<svg width="32" height="32" viewBox="0 0 32 32" fill="none" xmlns="http://www.w3.org/2000/svg">
<path fill-rule="evenodd" clip-rule="evenodd" d="M1.33331 16C1.33331 7.8998 7.8998 1.33331 16 1.33331C24.1002 1.33331 30.6666 7.8998 30.6666 16C30.6666 24.1002 24.1002 30.6666 16 30.6666C7.8998 30.6666 1.33331 24.1002 1.33331 16ZM16 5.33331C16.7364 5.33331 17.3333 5.93027 17.3333 6.66665V11.8518C17.3333 12.5882 16.7364 13.1852 16 13.1852C15.2636 13.1852 14.6666 12.5882 14.6666 11.8518V6.66665C14.6666 5.93027 15.2636 5.33331 16 5.33331ZM25.3333 17.3333C26.0697 17.3333 26.6666 16.7364 26.6666 16C26.6666 15.2636 26.0697 14.6666 25.3333 14.6666H20.1481C19.4117 14.6666 18.8148 15.2636 18.8148 16C18.8148 16.7364 19.4117 17.3333 20.1481 17.3333H25.3333ZM16 18.8148C16.7364 18.8148 17.3333 19.4117 17.3333 20.1481V25.3333C17.3333 26.0697 16.7364 26.6666 16 26.6666C15.2636 26.6666 14.6666 26.0697 14.6666 25.3333V20.1481C14.6666 19.4117 15.2636 18.8148 16 18.8148ZM11.8518 17.3333C12.5882 17.3333 13.1852 16.7364 13.1852 16C13.1852 15.2636 12.5882 14.6666 11.8518 14.6666H6.66665C5.93027 14.6666 5.33331 15.2636 5.33331 16C5.33331 16.7364 5.93027 17.3333 6.66665 17.3333H11.8518Z" fill="white"/>
</svg>
