<svg width="32" height="32" viewBox="0 0 32 32" fill="none" xmlns="http://www.w3.org/2000/svg">
<path d="M24 12C26.9455 12 29.3333 9.61216 29.3333 6.66665C29.3333 3.72113 26.9455 1.33331 24 1.33331C21.0544 1.33331 18.6666 3.72113 18.6666 6.66665C18.6666 7.16961 18.7362 7.6563 18.8664 8.11763L11.7887 12.2463C10.8222 11.2708 9.48163 10.6666 7.99996 10.6666C5.05444 10.6666 2.66663 13.0545 2.66663 16C2.66663 18.9455 5.05444 21.3333 7.99996 21.3333C9.48163 21.3333 10.8222 20.7291 11.7887 19.7537L18.8664 23.8823C18.7362 24.3437 18.6666 24.8304 18.6666 25.3333C18.6666 28.2788 21.0544 30.6666 24 30.6666C26.9455 30.6666 29.3333 28.2788 29.3333 25.3333C29.3333 22.3878 26.9455 20 24 20C22.5183 20 21.1777 20.6042 20.2113 21.5796L13.1335 17.451C13.2637 16.9896 13.3333 16.5029 13.3333 16C13.3333 15.497 13.2637 15.0103 13.1335 14.549L20.2113 10.4203C21.1777 11.3958 22.5183 12 24 12Z" fill="white"/>
</svg>
