<svg width="32" height="32" viewBox="0 0 32 32" fill="none" xmlns="http://www.w3.org/2000/svg">
<path d="M17.3333 11.832C19.6336 11.2399 21.3333 9.15176 21.3333 6.66665C21.3333 3.72113 18.9455 1.33331 16 1.33331C13.0544 1.33331 10.6666 3.72113 10.6666 6.66665C10.6666 9.15176 12.3663 11.2399 14.6666 11.832V14.6666H10.6666C8.45749 14.6666 6.66663 16.4575 6.66663 18.6666V20.168C4.36632 20.7601 2.66663 22.8482 2.66663 25.3333C2.66663 28.2788 5.05444 30.6666 7.99996 30.6666C10.9455 30.6666 13.3333 28.2788 13.3333 25.3333C13.3333 22.8482 11.6336 20.7601 9.33329 20.168V18.6666C9.33329 17.9303 9.93025 17.3333 10.6666 17.3333H21.3333C22.0697 17.3333 22.6666 17.9303 22.6666 18.6666V20.168C20.3663 20.7601 18.6666 22.8482 18.6666 25.3333C18.6666 28.2788 21.0544 30.6666 24 30.6666C26.9455 30.6666 29.3333 28.2788 29.3333 25.3333C29.3333 22.8482 27.6336 20.7601 25.3333 20.168V18.6666C25.3333 16.4575 23.5424 14.6666 21.3333 14.6666H17.3333V11.832Z" fill="white"/>
</svg>
