<svg width="32" height="32" viewBox="0 0 32 32" fill="none" xmlns="http://www.w3.org/2000/svg">
<path d="M23.0572 14.2761L14.8541 22.4792C13.5989 20.2472 11.7528 18.4011 9.52077 17.1459L19.8248 6.84182C20.3528 6.3138 20.6169 6.0498 20.9213 5.95088C21.1891 5.86387 21.4775 5.86387 21.7453 5.95088C22.0498 6.0498 22.3138 6.31381 22.8418 6.84183L25.1582 9.15818C25.6862 9.6862 25.9502 9.95021 26.0491 10.2546C26.1361 10.5224 26.1361 10.8109 26.0491 11.0787C25.9502 11.3831 25.6862 11.6471 25.1582 12.1752L24.9428 12.3905L27.1381 14.5858C27.9191 15.3668 27.9191 16.6332 27.1381 17.4142L23.6095 20.9428C23.0888 21.4635 22.2446 21.4635 21.7239 20.9428C21.2032 20.4221 21.2032 19.5779 21.7239 19.0572L24.781 16L23.0572 14.2761Z" fill="white"/>
<path d="M7.68147 19.6222L6.68256 22.619C6.24829 23.9217 6.03116 24.5731 6.18563 25.0063C6.32005 25.3833 6.6167 25.6799 6.99366 25.8144C7.42684 25.9688 8.07825 25.7517 9.38102 25.3174L12.3778 24.3185C12.5288 24.2682 12.648 24.2284 12.7477 24.1931C11.6637 22.0669 9.93307 20.3363 7.80685 19.2523C7.77156 19.3519 7.73179 19.4712 7.68147 19.6222Z" fill="white"/>
</svg>
