<svg version="1.1" id="Layer_1" xmlns="http://www.w3.org/2000/svg" xmlns:xlink="http://www.w3.org/1999/xlink" x="0px" y="0px"
	 width="100%" viewBox="0 0 328 73" enable-background="new 0 0 328 73" xml:space="preserve">
<path fill="#F7F8FA" opacity="1.000000" stroke="none" 
	d="
M247.000000,74.000000 
	C164.666687,74.000000 82.833382,74.000000 1.000055,74.000000 
	C1.000037,49.666698 1.000037,25.333397 1.000018,1.000071 
	C110.333275,1.000047 219.666550,1.000047 328.999878,1.000024 
	C328.999908,25.333261 328.999908,49.666523 328.999939,73.999893 
	C301.833344,74.000000 274.666656,74.000000 247.000000,74.000000 
M39.830414,51.297672 
	C49.442692,45.756145 59.059536,40.222507 68.664673,34.668633 
	C71.848877,32.827461 73.731354,27.859476 71.680054,25.669003 
	C69.358833,23.190302 66.685364,22.103802 62.978939,24.354748 
	C51.231384,31.489143 39.321823,38.373844 27.267017,44.975494 
	C23.331125,47.130939 23.457745,50.181206 24.308353,53.300861 
	C25.047993,56.013519 30.162521,56.817238 33.161228,55.134365 
	C35.184563,53.998859 37.197269,52.844425 39.830414,51.297672 
M191.954773,43.439766 
	C192.177155,41.893894 191.945160,40.052437 192.717896,38.864601 
	C194.255508,36.501076 196.345810,34.497116 198.339249,32.192600 
	C189.576828,29.379444 187.631851,37.661850 182.032501,41.135303 
	C182.032501,34.716518 182.032501,28.862123 182.032501,22.830980 
	C179.534058,22.944818 177.628586,23.031639 175.856598,23.112377 
	C175.856598,34.293697 175.856598,44.969952 175.856598,55.652096 
	C178.074234,55.652096 179.851715,55.652096 180.986633,55.652096 
	C182.317047,52.329296 183.490082,49.399578 184.907120,45.860439 
	C193.446243,56.335155 193.446243,56.335155 199.101318,55.107693 
	C196.802063,51.366863 194.562378,47.722961 191.954773,43.439766 
M303.869537,51.224148 
	C303.869537,44.825382 303.869537,38.426617 303.869537,31.892460 
	C301.295074,31.892460 299.368683,31.892460 297.042450,31.892460 
	C297.042450,35.755875 297.055664,39.370533 297.038818,42.985050 
	C297.021484,46.706123 296.460846,50.509144 291.774780,50.421852 
	C287.176117,50.336185 287.289062,46.268475 287.142059,42.976505 
	C286.980713,39.363098 287.105286,35.736923 287.105286,32.047642 
	C284.680511,32.047642 282.648773,32.047642 280.798492,32.047642 
	C280.798492,37.593662 280.429932,42.762112 280.891937,47.855217 
	C281.467010,54.194805 287.181580,57.652401 293.149872,55.699772 
	C295.129517,55.052101 296.542206,53.813396 299.059906,55.564232 
	C300.950775,56.879139 304.566467,56.564739 303.869537,51.224148 
M271.566559,54.380383 
	C277.196899,50.050545 278.896271,43.640686 275.973572,37.757500 
	C273.248535,32.272182 266.392914,29.892544 259.631409,32.085064 
	C254.017151,33.905575 251.032898,39.294632 251.930328,45.991875 
	C253.041168,54.281624 260.891083,57.927887 271.566559,54.380383 
M119.774666,50.461395 
	C120.517555,51.340927 121.152901,52.348351 122.021309,53.078632 
	C126.638824,56.961742 134.390472,57.113205 139.112076,53.488392 
	C143.502762,50.117596 144.856064,43.156990 142.182922,37.693600 
	C139.717865,32.655479 133.579178,30.207289 127.269272,31.745848 
	C119.182259,33.717724 116.131699,40.673241 119.774666,50.461395 
M171.198486,39.580719 
	C168.548340,33.736317 164.347473,30.994228 158.474884,31.275480 
	C152.744080,31.549942 148.609955,34.396545 146.986038,39.186249 
	C145.237366,44.344009 146.643845,50.235077 150.354675,53.295868 
	C154.186371,56.456356 161.300461,57.020374 165.886719,54.527298 
	C170.562759,51.985420 172.430618,47.177113 171.198486,39.580719 
M212.182755,36.118908 
	C215.211380,37.325951 218.240005,38.532993 222.416138,40.197365 
	C219.210220,30.842621 207.447937,28.438410 202.234909,34.375980 
	C198.749741,38.345520 200.013306,43.353466 205.093246,44.999451 
	C207.434937,45.758198 210.010895,45.778370 212.378738,46.478188 
	C213.639465,46.850796 214.682922,47.958584 215.824448,48.734535 
	C214.582321,49.570324 213.405777,50.936199 212.080521,51.100208 
	C210.609406,51.282269 208.974930,50.445900 207.461227,49.912182 
	C205.145630,49.095737 202.872559,48.158665 199.710083,46.935883 
	C201.822891,54.240280 205.483032,56.442245 212.740952,56.075111 
	C218.443298,55.786667 222.089233,52.947525 222.314117,48.620338 
	C222.545486,44.168453 220.070923,42.014259 213.716385,41.037571 
	C211.400040,40.681553 209.103653,40.195679 206.798172,39.769047 
	C206.730576,39.123940 206.662994,38.478832 206.595413,37.833729 
	C208.191315,37.233105 209.787201,36.632477 212.182755,36.118908 
M23.988142,31.483219 
	C23.988142,33.239159 23.988142,34.995094 23.988142,37.609806 
	C35.815376,30.778309 46.917461,24.365662 58.392544,17.737568 
	C56.451199,16.603817 54.893612,15.952749 53.652660,14.920885 
	C49.960564,11.850855 46.626648,11.979037 42.637356,14.773820 
	C38.044113,17.991714 33.052948,20.710379 28.013870,23.198889 
	C24.669544,24.850464 23.327314,27.044317 23.988142,31.483219 
M228.443497,34.963612 
	C224.481537,40.320602 224.058640,46.250938 227.291580,51.117477 
	C229.992142,55.182632 236.166519,57.241863 241.551132,55.661606 
	C245.785889,54.418808 248.708191,51.881905 249.270325,45.247089 
	C245.859894,46.929756 243.334686,47.843681 241.191971,49.314743 
	C238.348755,51.266716 235.950272,51.092651 233.706253,48.658066 
	C231.366379,46.119484 231.375687,40.962891 233.824051,38.564877 
	C236.166351,36.270737 239.131592,35.816914 241.227859,38.481934 
	C243.606247,41.505661 246.117722,40.867474 248.946365,40.327000 
	C249.032684,31.572496 235.498398,28.275883 228.443497,34.963612 
M55.017193,63.508686 
	C58.470669,61.518639 61.920502,59.522232 65.378349,57.539825 
	C73.305504,52.995148 73.347641,52.903893 71.530083,42.427193 
	C60.505169,48.778164 49.659840,55.025684 38.696983,61.340908 
	C46.463345,67.897522 47.178093,68.004219 55.017193,63.508686 
M103.351524,31.587835 
	C103.351524,28.807585 103.351524,26.027332 103.351524,23.147224 
	C100.772476,23.147224 98.681450,23.147224 96.461472,23.147224 
	C96.461472,34.074078 96.461472,44.759892 96.461472,55.580124 
	C103.155785,55.580124 109.526878,55.580124 116.057701,55.580124 
	C116.057701,53.556530 116.057701,51.813755 116.057701,49.703957 
	C111.828659,49.703957 107.886856,49.703957 103.351295,49.703957 
	C103.351295,43.757408 103.351295,38.161789 103.351524,31.587835 
M310.092712,49.877861 
	C311.903290,55.709549 314.037628,56.703327 322.148071,55.444881 
	C322.148071,53.750809 322.148071,52.051388 322.148071,50.405079 
	C320.294922,50.177616 318.849518,50.000198 317.214905,49.799557 
	C317.214905,45.558964 317.214905,41.523739 317.214905,37.358337 
	C318.983521,37.228485 320.411713,37.123623 321.907227,37.013824 
	C321.907227,35.112480 321.907227,33.548965 321.907227,31.921776 
	C320.189209,31.709059 318.737274,31.529291 317.135925,31.331020 
	C316.955170,29.267708 316.785797,27.334299 316.601471,25.230108 
	C314.375305,25.230108 312.341644,25.230108 310.050781,25.230108 
	C310.050781,27.340393 310.050781,29.137144 310.050781,29.451250 
	C308.145844,31.761545 306.196655,33.095848 306.282410,34.283192 
	C306.388672,35.754635 308.181244,37.104294 309.245361,38.506561 
	C309.939484,38.369854 310.025330,38.698208 310.026978,39.026989 
	C310.043854,42.348343 310.046936,45.669762 310.092712,49.877861 
z"/>
<path fill="#333944" opacity="1.000000" stroke="none" 
	d="
M39.522572,51.498066 
	C37.197269,52.844425 35.184563,53.998859 33.161228,55.134365 
	C30.162521,56.817238 25.047993,56.013519 24.308353,53.300861 
	C23.457745,50.181206 23.331125,47.130939 27.267017,44.975494 
	C39.321823,38.373844 51.231384,31.489143 62.978939,24.354748 
	C66.685364,22.103802 69.358833,23.190302 71.680054,25.669003 
	C73.731354,27.859476 71.848877,32.827461 68.664673,34.668633 
	C59.059536,40.222507 49.442692,45.756145 39.522572,51.498066 
z"/>
<path fill="#3B414B" opacity="1.000000" stroke="none" 
	d="
M192.138733,43.759415 
	C194.562378,47.722961 196.802063,51.366863 199.101318,55.107693 
	C193.446243,56.335155 193.446243,56.335155 184.907120,45.860439 
	C183.490082,49.399578 182.317047,52.329296 180.986633,55.652096 
	C179.851715,55.652096 178.074234,55.652096 175.856598,55.652096 
	C175.856598,44.969952 175.856598,34.293697 175.856598,23.112377 
	C177.628586,23.031639 179.534058,22.944818 182.032501,22.830980 
	C182.032501,28.862123 182.032501,34.716518 182.032501,41.135303 
	C187.631851,37.661850 189.576828,29.379444 198.339249,32.192600 
	C196.345810,34.497116 194.255508,36.501076 192.717896,38.864601 
	C191.945160,40.052437 192.177155,41.893894 192.138733,43.759415 
z"/>
<path fill="#3A3F4A" opacity="1.000000" stroke="none" 
	d="
M303.869446,51.684448 
	C304.566467,56.564739 300.950775,56.879139 299.059906,55.564232 
	C296.542206,53.813396 295.129517,55.052101 293.149872,55.699772 
	C287.181580,57.652401 281.467010,54.194805 280.891937,47.855217 
	C280.429932,42.762112 280.798492,37.593662 280.798492,32.047642 
	C282.648773,32.047642 284.680511,32.047642 287.105286,32.047642 
	C287.105286,35.736923 286.980713,39.363098 287.142059,42.976505 
	C287.289062,46.268475 287.176117,50.336185 291.774780,50.421852 
	C296.460846,50.509144 297.021484,46.706123 297.038818,42.985050 
	C297.055664,39.370533 297.042450,35.755875 297.042450,31.892460 
	C299.368683,31.892460 301.295074,31.892460 303.869537,31.892460 
	C303.869537,38.426617 303.869537,44.825382 303.869446,51.684448 
z"/>
<path fill="#373D48" opacity="1.000000" stroke="none" 
	d="
M271.235596,54.592880 
	C260.891083,57.927887 253.041168,54.281624 251.930328,45.991875 
	C251.032898,39.294632 254.017151,33.905575 259.631409,32.085064 
	C266.392914,29.892544 273.248535,32.272182 275.973572,37.757500 
	C278.896271,43.640686 277.196899,50.050545 271.235596,54.592880 
M264.500183,36.863186 
	C259.508209,38.103966 257.393677,41.630749 258.989899,46.352482 
	C260.172424,49.850414 262.680908,51.354691 266.317200,50.270187 
	C269.808594,49.228916 271.740814,44.635910 269.884308,40.823311 
	C269.078308,39.168114 266.885132,38.188400 264.500183,36.863186 
z"/>
<path fill="#373D47" opacity="1.000000" stroke="none" 
	d="
M119.560257,50.136650 
	C116.131699,40.673241 119.182259,33.717724 127.269272,31.745848 
	C133.579178,30.207289 139.717865,32.655479 142.182922,37.693600 
	C144.856064,43.156990 143.502762,50.117596 139.112076,53.488392 
	C134.390472,57.113205 126.638824,56.961742 122.021309,53.078632 
	C121.152901,52.348351 120.517555,51.340927 119.560257,50.136650 
M125.287460,46.714481 
	C126.834221,50.024532 129.272903,51.768288 132.875290,50.195629 
	C136.720230,48.517082 137.454224,45.177025 136.486877,41.425976 
	C135.686249,38.321411 133.655762,36.520947 130.288773,36.896484 
	C126.119926,37.361446 124.879364,40.220249 124.878204,43.945076 
	C124.877998,44.607037 124.998291,45.269043 125.287460,46.714481 
z"/>
<path fill="#363C47" opacity="1.000000" stroke="none" 
	d="
M171.295227,39.968086 
	C172.430618,47.177113 170.562759,51.985420 165.886719,54.527298 
	C161.300461,57.020374 154.186371,56.456356 150.354675,53.295868 
	C146.643845,50.235077 145.237366,44.344009 146.986038,39.186249 
	C148.609955,34.396545 152.744080,31.549942 158.474884,31.275480 
	C164.347473,30.994228 168.548340,33.736317 171.295227,39.968086 
M153.072601,43.557053 
	C153.236710,47.769535 155.004242,50.782101 159.590546,50.564884 
	C163.058594,50.400627 164.780045,47.882111 165.002625,44.510700 
	C165.243164,40.866737 164.222397,37.728397 160.175873,36.999012 
	C155.838593,36.217213 153.769806,38.761513 153.072601,43.557053 
z"/>
<path fill="#373D47" opacity="1.000000" stroke="none" 
	d="
M211.782928,36.075378 
	C209.787201,36.632477 208.191315,37.233105 206.595413,37.833729 
	C206.662994,38.478832 206.730576,39.123940 206.798172,39.769047 
	C209.103653,40.195679 211.400040,40.681553 213.716385,41.037571 
	C220.070923,42.014259 222.545486,44.168453 222.314117,48.620338 
	C222.089233,52.947525 218.443298,55.786667 212.740952,56.075111 
	C205.483032,56.442245 201.822891,54.240280 199.710083,46.935883 
	C202.872559,48.158665 205.145630,49.095737 207.461227,49.912182 
	C208.974930,50.445900 210.609406,51.282269 212.080521,51.100208 
	C213.405777,50.936199 214.582321,49.570324 215.824448,48.734535 
	C214.682922,47.958584 213.639465,46.850796 212.378738,46.478188 
	C210.010895,45.778370 207.434937,45.758198 205.093246,44.999451 
	C200.013306,43.353466 198.749741,38.345520 202.234909,34.375980 
	C207.447937,28.438410 219.210220,30.842621 222.416138,40.197365 
	C218.240005,38.532993 215.211380,37.325951 211.782928,36.075378 
z"/>
<path fill="#343A45" opacity="1.000000" stroke="none" 
	d="
M23.988142,31.044155 
	C23.327314,27.044317 24.669544,24.850464 28.013870,23.198889 
	C33.052948,20.710379 38.044113,17.991714 42.637356,14.773820 
	C46.626648,11.979037 49.960564,11.850855 53.652660,14.920885 
	C54.893612,15.952749 56.451199,16.603817 58.392544,17.737568 
	C46.917461,24.365662 35.815376,30.778309 23.988142,37.609806 
	C23.988142,34.995094 23.988142,33.239159 23.988142,31.044155 
z"/>
<path fill="#393E49" opacity="1.000000" stroke="none" 
	d="
M228.701721,34.687637 
	C235.498398,28.275883 249.032684,31.572496 248.946365,40.327000 
	C246.117722,40.867474 243.606247,41.505661 241.227859,38.481934 
	C239.131592,35.816914 236.166351,36.270737 233.824051,38.564877 
	C231.375687,40.962891 231.366379,46.119484 233.706253,48.658066 
	C235.950272,51.092651 238.348755,51.266716 241.191971,49.314743 
	C243.334686,47.843681 245.859894,46.929756 249.270325,45.247089 
	C248.708191,51.881905 245.785889,54.418808 241.551132,55.661606 
	C236.166519,57.241863 229.992142,55.182632 227.291580,51.117477 
	C224.058640,46.250938 224.481537,40.320602 228.701721,34.687637 
z"/>
<path fill="#353B45" opacity="1.000000" stroke="none" 
	d="
M54.698769,63.699989 
	C47.178093,68.004219 46.463345,67.897522 38.696983,61.340908 
	C49.659840,55.025684 60.505169,48.778164 71.530083,42.427193 
	C73.347641,52.903893 73.305504,52.995148 65.378349,57.539825 
	C61.920502,59.522232 58.470669,61.518639 54.698769,63.699989 
z"/>
<path fill="#373D47" opacity="1.000000" stroke="none" 
	d="
M103.351410,32.077003 
	C103.351295,38.161789 103.351295,43.757408 103.351295,49.703957 
	C107.886856,49.703957 111.828659,49.703957 116.057701,49.703957 
	C116.057701,51.813755 116.057701,53.556530 116.057701,55.580124 
	C109.526878,55.580124 103.155785,55.580124 96.461472,55.580124 
	C96.461472,44.759892 96.461472,34.074078 96.461472,23.147224 
	C98.681450,23.147224 100.772476,23.147224 103.351524,23.147224 
	C103.351524,26.027332 103.351524,28.807585 103.351410,32.077003 
z"/>
<path fill="#383D48" opacity="1.000000" stroke="none" 
	d="
M310.073303,49.434513 
	C310.046936,45.669762 310.043854,42.348343 310.026978,39.026989 
	C310.025330,38.698208 309.939484,38.369854 309.245361,38.506561 
	C308.181244,37.104294 306.388672,35.754635 306.282410,34.283192 
	C306.196655,33.095848 308.145844,31.761545 310.050781,29.451250 
	C310.050781,29.137144 310.050781,27.340393 310.050781,25.230108 
	C312.341644,25.230108 314.375305,25.230108 316.601471,25.230108 
	C316.785797,27.334299 316.955170,29.267708 317.135925,31.331020 
	C318.737274,31.529291 320.189209,31.709059 321.907227,31.921776 
	C321.907227,33.548965 321.907227,35.112480 321.907227,37.013824 
	C320.411713,37.123623 318.983521,37.228485 317.214905,37.358337 
	C317.214905,41.523739 317.214905,45.558964 317.214905,49.799557 
	C318.849518,50.000198 320.294922,50.177616 322.148071,50.405079 
	C322.148071,52.051388 322.148071,53.750809 322.148071,55.444881 
	C314.037628,56.703327 311.903290,55.709549 310.073303,49.434513 
z"/>
<path fill="#F1F2F5" opacity="1.000000" stroke="none" 
	d="
M264.911102,36.882534 
	C266.885132,38.188400 269.078308,39.168114 269.884308,40.823311 
	C271.740814,44.635910 269.808594,49.228916 266.317200,50.270187 
	C262.680908,51.354691 260.172424,49.850414 258.989899,46.352482 
	C257.393677,41.630749 259.508209,38.103966 264.911102,36.882534 
z"/>
<path fill="#EFF1F3" opacity="1.000000" stroke="none" 
	d="
M125.175201,46.322754 
	C124.998291,45.269043 124.877998,44.607037 124.878204,43.945076 
	C124.879364,40.220249 126.119926,37.361446 130.288773,36.896484 
	C133.655762,36.520947 135.686249,38.321411 136.486877,41.425976 
	C137.454224,45.177025 136.720230,48.517082 132.875290,50.195629 
	C129.272903,51.768288 126.834221,50.024532 125.175201,46.322754 
z"/>
<path fill="#EFF1F3" opacity="1.000000" stroke="none" 
	d="
M153.078156,43.155350 
	C153.769806,38.761513 155.838593,36.217213 160.175873,36.999012 
	C164.222397,37.728397 165.243164,40.866737 165.002625,44.510700 
	C164.780045,47.882111 163.058594,50.400627 159.590546,50.564884 
	C155.004242,50.782101 153.236710,47.769535 153.078156,43.155350 
z"/>
</svg>